<?xml version="1.0" standalone="no"?>
<!DOCTYPE svg PUBLIC "-//W3C//DTD SVG 20010904//EN"
 "http://www.w3.org/TR/2001/REC-SVG-20010904/DTD/svg10.dtd">
<svg version="1.0" xmlns="http://www.w3.org/2000/svg"
 width="128.000000pt" height="128.000000pt" viewBox="0 0 128.000000 128.000000"
 preserveAspectRatio="xMidYMid meet">
<metadata>
Created by potrace 1.11, written by Peter Selinger 2001-2013
</metadata>
<g transform="translate(0.000000,128.000000) scale(0.100000,-0.100000)"
fill="#000000" stroke="none">
<path d="M115 1261 c-48 -22 -79 -54 -100 -103 -13 -32 -15 -107 -15 -520 0
-447 2 -486 19 -523 23 -50 70 -91 121 -105 24 -7 212 -10 510 -10 398 1 478
3 509 16 46 19 78 49 102 95 17 34 18 69 19 523 0 419 -2 491 -15 523 -21 50
-51 82 -100 104 -37 17 -75 19 -525 19 -450 0 -488 -2 -525 -19z"/>
</g>
</svg>
